<svg width="24" height="25" viewBox="0 0 24 25" fill="none" xmlns="http://www.w3.org/2000/svg">
    <path d="M12.001 9.5C11.2054 9.5 10.4423 9.81607 9.87969 10.3787C9.31708 10.9413 9.00101 11.7044 9.00101 12.5C9.00101 13.2956 9.31708 14.0587 9.87969 14.6213C10.4423 15.1839 11.2054 15.5 12.001 15.5C12.7967 15.5 13.5597 15.1839 14.1223 14.6213C14.6849 14.0587 15.001 13.2956 15.001 12.5C15.001 11.7044 14.6849 10.9413 14.1223 10.3787C13.5597 9.81607 12.7967 9.5 12.001 9.5ZM12.001 7.5C13.3271 7.5 14.5989 8.02678 15.5365 8.96447C16.4742 9.90215 17.001 11.1739 17.001 12.5C17.001 13.8261 16.4742 15.0979 15.5365 16.0355C14.5989 16.9732 13.3271 17.5 12.001 17.5C10.6749 17.5 9.40316 16.9732 8.46547 16.0355C7.52779 15.0979 7.00101 13.8261 7.00101 12.5C7.00101 11.1739 7.52779 9.90215 8.46547 8.96447C9.40316 8.02678 10.6749 7.5 12.001 7.5ZM18.501 7.25C18.501 7.58152 18.3693 7.89946 18.1349 8.13388C17.9005 8.3683 17.5825 8.5 17.251 8.5C16.9195 8.5 16.6015 8.3683 16.3671 8.13388C16.1327 7.89946 16.001 7.58152 16.001 7.25C16.001 6.91848 16.1327 6.60054 16.3671 6.36612C16.6015 6.1317 16.9195 6 17.251 6C17.5825 6 17.9005 6.1317 18.1349 6.36612C18.3693 6.60054 18.501 6.91848 18.501 7.25ZM12.001 4.5C9.52701 4.5 9.12301 4.507 7.97201 4.558C7.18801 4.595 6.66201 4.7 6.17401 4.89C5.76562 5.03994 5.39642 5.28026 5.09401 5.593C4.78101 5.8954 4.54036 6.26458 4.39001 6.673C4.20001 7.163 4.09501 7.688 4.05901 8.471C4.00701 9.575 4.00001 9.961 4.00001 12.5C4.00001 14.975 4.00701 15.378 4.05801 16.529C4.09501 17.312 4.20001 17.839 4.38901 18.326C4.55901 18.761 4.75901 19.074 5.09101 19.406C5.42801 19.742 5.74101 19.943 6.17101 20.109C6.66501 20.3 7.19101 20.406 7.97101 20.442C9.07501 20.494 9.46101 20.5 12 20.5C14.475 20.5 14.878 20.493 16.029 20.442C16.811 20.405 17.337 20.3 17.826 20.111C18.234 19.9603 18.6031 19.7201 18.906 19.408C19.243 19.072 19.444 18.759 19.61 18.328C19.8 17.836 19.906 17.31 19.942 16.528C19.994 15.425 20 15.038 20 12.5C20 10.026 19.993 9.622 19.942 8.471C19.905 7.689 19.799 7.161 19.61 6.673C19.4593 6.26502 19.2191 5.89598 18.907 5.593C18.6047 5.27985 18.2355 5.03917 17.827 4.889C17.337 4.699 16.811 4.594 16.029 4.558C14.926 4.506 14.541 4.5 12.001 4.5ZM12.001 2.5C14.718 2.5 15.057 2.51 16.124 2.56C17.188 2.61 17.914 2.777 18.551 3.025C19.211 3.279 19.767 3.623 20.323 4.178C20.8315 4.6779 21.225 5.28259 21.476 5.95C21.723 6.587 21.891 7.313 21.941 8.378C21.988 9.444 22.001 9.783 22.001 12.5C22.001 15.217 21.991 15.556 21.941 16.622C21.891 17.687 21.723 18.412 21.476 19.05C21.2257 19.7178 20.8321 20.3226 20.323 20.822C19.823 21.3303 19.2183 21.7238 18.551 21.975C17.914 22.222 17.188 22.39 16.124 22.44C15.057 22.487 14.718 22.5 12.001 22.5C9.28401 22.5 8.94501 22.49 7.87801 22.44C6.81401 22.39 6.08901 22.222 5.45101 21.975C4.78333 21.7245 4.17853 21.3309 3.67901 20.822C3.17044 20.3222 2.77697 19.7175 2.52601 19.05C2.27801 18.413 2.11101 17.687 2.06101 16.622C2.01301 15.556 2.00101 15.217 2.00101 12.5C2.00101 9.783 2.01101 9.444 2.06101 8.378C2.11101 7.312 2.27801 6.588 2.52601 5.95C2.77624 5.28218 3.16981 4.67732 3.67901 4.178C4.17868 3.66923 4.78344 3.27573 5.45101 3.025C6.08801 2.777 6.81301 2.61 7.87801 2.56C8.94501 2.513 9.28401 2.5 12.001 2.5Z" fill="white"/>
</svg>